<svg width="459" height="459" viewBox="0 0 459 459" fill="none" xmlns="http://www.w3.org/2000/svg">
<path d="M0 0C63.5 3.4 127 6.79999 175.7 34.9C224.3 63.1 258.2 116.1 299.1 159.9C340 203.7 387.9 238.5 415.7 286.8C443.6 335.1 451.3 397.1 459 459H0V0Z" fill="#F2FDF6"/>
<path d="M0 153C42.3 155.3 84.6 157.5 117.1 176.3C149.6 195.1 172.1 230.4 199.4 259.6C226.7 288.8 258.6 312 277.2 344.2C295.7 376.4 300.9 417.7 306 459H0V153Z" fill="#C6F6D5"/>
<path d="M0 306C21.2 307.1 42.3 308.3 58.6 317.6C74.8 327 86.1 344.7 99.7 359.3C113.3 373.9 129.3 385.5 138.6 401.6C147.9 417.7 150.4 438.4 153 459H0V306Z" fill="#3BB77E"/>
</svg>
