<svg width="460" height="459" viewBox="0 0 460 459" fill="none" xmlns="http://www.w3.org/2000/svg">
<path d="M0.999784 459C-0.900216 390.6 -2.80022 322.1 35.8998 283.3C74.6998 244.6 154.2 235.5 199.8 198.8C245.3 162 257 97.6 294.7 59.9C332.4 22.1 396.2 11.1 460 0V459H0.999784Z" fill="#F2FDF6"/>
<path d="M154 459C152.7 413.4 151.4 367.7 177.3 341.9C203.2 316.1 256.1 310 286.5 285.5C316.9 261 324.6 218.1 349.8 192.9C374.9 167.8 417.5 160.4 460 153V459H154Z" fill="#C6F6D5"/>
<path d="M307 459C306.4 436.2 305.7 413.4 318.6 400.4C331.6 387.5 358.1 384.5 373.3 372.3C388.4 360 392.3 338.5 404.9 326C417.5 313.4 438.7 309.7 460 306V459H307Z" fill="#3BB77E"/>
</svg>
